<svg width="70" height="30" viewBox="0 0 70 30" fill="none" xmlns="http://www.w3.org/2000/svg">
<g clip-path="url(#clip0_1011_2)">
<path d="M17.8202 0.062412C16.6313 0.237315 14.984 0.616272 13.9812 0.936928C10.3285 2.10295 6.91923 4.62447 4.35514 8.10796C2.73646 10.3088 1.18941 13.8215 0.630751 16.547C0.301286 18.1357 -0.0138542 21.386 0.000470395 22.8581L0.0291195 24.097L0.143716 22.8873C0.430207 19.7973 1.26103 17.1738 2.56457 15.2207C3.43837 13.8943 4.22622 13.1801 5.41516 12.6117C6.30328 12.189 6.47517 12.1599 8.0079 12.1453C9.44036 12.1453 9.7555 12.189 10.4144 12.4951C11.2453 12.8741 11.9185 13.5737 12.3196 14.4628C12.8639 15.6871 12.9069 15.6579 10.1996 15.76C6.50382 15.9203 4.88515 16.4013 3.56729 17.7422C1.97726 19.3601 2.09186 21.9836 3.8108 23.4266C4.78487 24.2428 5.71597 24.5051 7.64979 24.5197C9.6982 24.5343 10.4431 24.3302 11.7323 23.3537C12.205 23.0039 12.6204 22.7124 12.6634 22.7124C12.7064 22.7124 12.735 23.0768 12.735 23.514V24.3156H13.9526H15.1702V19.8119C15.1702 17.3487 15.0986 14.9583 15.0269 14.5356C14.4969 11.6789 12.1334 10.0173 8.58088 10.0319C7.67844 10.0465 6.05976 10.3088 5.51543 10.542C5.04272 10.7461 5.45813 10.1922 6.83329 8.77842C11.5747 3.89571 15.7861 2.14667 22.3325 2.35073C28.1912 2.52563 33.8637 3.93943 38.6625 6.38808C39.2927 6.70873 39.8514 6.97109 39.8944 6.97109C40.0949 6.97109 38.29 5.74676 36.8146 4.88682C32.9899 2.65681 29.0077 1.12641 25.1258 0.397643C23.4784 0.106138 18.9948 -0.112491 17.8202 0.062412ZM12.5058 17.5527C12.692 17.6256 12.735 17.8734 12.735 18.6896C12.7207 20.2637 12.5631 20.803 11.8755 21.4297C10.9588 22.2605 9.91307 22.6103 8.29439 22.6103C6.77599 22.6103 6.40355 22.4937 5.673 21.8379C4.78487 21.0508 4.81352 19.8119 5.74462 18.8208C6.46085 18.0774 7.67844 17.7422 10.1423 17.611C11.2882 17.5527 12.248 17.4944 12.2623 17.4944C12.2766 17.4799 12.3769 17.509 12.5058 17.5527Z" fill="#6B8E23"/>
<path d="M41.8138 13.7486V24.3156H43.0314H44.249V19.3018V14.3024L44.8793 13.7049C45.6958 12.9469 46.4264 12.568 47.4864 12.3785C48.9045 12.1162 50.208 12.466 51.0102 13.3405C51.8267 14.215 51.884 14.6377 51.9556 19.6807L52.0129 24.3156H53.2162H54.4195V19.6807C54.4195 13.7632 54.2762 13.0052 52.9727 11.5623C51.8554 10.338 49.7067 9.76954 47.6583 10.1631C46.5123 10.3963 45.7961 10.7169 44.9366 11.3874L44.249 11.9267V7.5541V3.18152H43.0314H41.8138V13.7486Z" fill="#2F3E46"/>
<path d="M23.7936 10.1922C22.8481 10.3817 21.9314 10.9064 21.3154 11.6206C21.0003 11.9704 20.7568 12.3202 20.7568 12.3785C20.7568 12.4514 20.6995 12.5097 20.6422 12.5097C20.5705 12.5097 20.5276 12.0287 20.5276 11.4457L20.5419 10.3963H19.3243H18.1067L18.0637 17.3487L18.0351 24.3156H19.31H20.5992L20.6422 19.9722C20.6851 15.8037 20.6995 15.6142 21.0146 15.0312C21.8025 13.5154 23.0487 12.6846 24.696 12.5388L25.6271 12.466V11.2562V10.0319L25.0255 10.0465C24.6817 10.061 24.1374 10.1193 23.7936 10.1922Z" fill="#2F3E46"/>
<path d="M31.6864 10.2505C29.151 10.8044 26.9164 12.9178 26.2718 15.3373C25.7561 17.2612 26.1572 19.9139 27.1742 21.4297C28.5494 23.4703 30.3829 24.4323 33.1619 24.5634C35.8979 24.7092 37.6884 24.1699 39.2355 22.7561L39.9804 22.0711L39.6366 21.8087C39.4647 21.6775 39.0349 21.3569 38.7198 21.1091L38.1182 20.6718L37.4306 21.2403C36.1987 22.2314 35.5827 22.4646 34.1216 22.5375C32.4743 22.6103 31.5575 22.348 30.4545 21.4735C29.8529 20.9925 29.5521 20.5844 29.1796 19.841C28.7356 18.9082 28.7069 18.7625 28.7069 17.3195C28.7069 15.9932 28.7499 15.6871 29.065 15.0604C29.5091 14.113 30.5978 13.0198 31.4572 12.6263C31.9443 12.4077 32.5316 12.3056 33.5057 12.2619C35.1816 12.1745 36.1414 12.4951 37.2014 13.4717C37.6025 13.8215 37.9606 14.113 38.0179 14.113C38.1755 14.113 39.8085 12.7866 39.8085 12.6554C39.8085 12.4222 38.5336 11.402 37.6884 10.9356C36.1271 10.0902 33.6776 9.81326 31.6864 10.2505Z" fill="#2F3E46"/>
<path d="M55.68 10.3963C55.6371 10.44 55.7517 10.7898 55.9379 11.1688C56.1098 11.5477 57.5136 14.6668 59.0606 18.092L61.8683 24.3302L61.6391 24.7821C61.4672 25.1319 59.8342 28.9069 59.4761 29.8105C59.4188 29.9563 59.7196 30 60.6936 30H61.9828L62.5558 28.6445C64.1602 24.8841 69.8757 11.0084 69.9903 10.6003C70.0476 10.4108 69.8757 10.3671 68.83 10.3817C68.1567 10.3963 67.5551 10.4546 67.4835 10.542C67.4119 10.6149 66.3948 13.049 65.2345 15.9349C64.0742 18.8208 63.1145 21.1965 63.0858 21.2257C63.0572 21.2694 62.1261 19.1269 59.9058 13.8943C59.1466 12.1307 58.4733 10.6149 58.4017 10.5129C58.2728 10.3525 55.8376 10.2505 55.68 10.3963Z" fill="#2F3E46"/>
</g>
<defs>
<clipPath id="clip0_1011_2">
<rect width="70" height="30" fill="white"/>
</clipPath>
</defs>
</svg>
